<mxfile host="app.diagrams.net" modified="2020-12-27T18:53:57.636Z" agent="5.0 (Macintosh; Intel Mac OS X 11_1_0) AppleWebKit/537.36 (KHTML, like Gecko) Chrome/87.0.4280.88 Safari/537.36" etag="CrwBNMrb-gfO9osJtD79" version="14.1.2" type="github" pages="5">
  <diagram id="vpAG3v19qG9bhR8gEHtB" name="Page-1">
    <mxGraphModel dx="946" dy="517" grid="1" gridSize="10" guides="1" tooltips="1" connect="1" arrows="1" fold="1" page="1" pageScale="1" pageWidth="850" pageHeight="1100" math="0" shadow="0">
      <root>
        <mxCell id="0" />
        <mxCell id="1" parent="0" />
        <mxCell id="VulXmD4ptxjGm15OgtDN-1" value="" style="strokeWidth=1;shadow=0;dashed=0;align=center;html=1;shape=mxgraph.mockup.containers.browserWindow;rSize=0;strokeColor=#666666;strokeColor2=#008cff;strokeColor3=#c4c4c4;mainText=,;recursiveResize=0;" vertex="1" parent="1">
          <mxGeometry x="40" y="80" width="760" height="520" as="geometry" />
        </mxCell>
        <mxCell id="VulXmD4ptxjGm15OgtDN-2" value="&lt;span style=&quot;color: rgb(36 , 41 , 46) ; font-family: , &amp;#34;consolas&amp;#34; , &amp;#34;liberation mono&amp;#34; , &amp;#34;menlo&amp;#34; , monospace ; font-size: 12px ; background-color: rgb(255 , 255 , 255)&quot;&gt;Milestone Project 01 - Personal Portfolio&lt;/span&gt;" style="strokeWidth=1;shadow=0;dashed=0;align=center;html=1;shape=mxgraph.mockup.containers.anchor;fontSize=17;fontColor=#666666;align=left;" vertex="1" parent="VulXmD4ptxjGm15OgtDN-1">
          <mxGeometry x="60" y="12" width="110" height="26" as="geometry" />
        </mxCell>
        <mxCell id="VulXmD4ptxjGm15OgtDN-3" value="https://www.abr.com" style="strokeWidth=1;shadow=0;dashed=0;align=center;html=1;shape=mxgraph.mockup.containers.anchor;rSize=0;fontSize=17;fontColor=#666666;align=left;" vertex="1" parent="VulXmD4ptxjGm15OgtDN-1">
          <mxGeometry x="130" y="60" width="250" height="26" as="geometry" />
        </mxCell>
        <mxCell id="VulXmD4ptxjGm15OgtDN-4" value="Contact" style="strokeColor=inherit;fillColor=inherit;gradientColor=inherit;strokeWidth=1;shadow=0;dashed=0;align=center;html=1;shape=mxgraph.mockup.text.rrect;rSize=0;fontSize=17;fontColor=#0000ff;sketch=0;" vertex="1" parent="VulXmD4ptxjGm15OgtDN-1">
          <mxGeometry x="612" y="114" width="67.5" height="25" as="geometry" />
        </mxCell>
        <mxCell id="VulXmD4ptxjGm15OgtDN-5" value="" style="strokeWidth=1;shadow=0;dashed=0;align=center;html=1;shape=mxgraph.mockup.text.rrect;rSize=0;strokeColor=#666666;sketch=0;" vertex="1" parent="VulXmD4ptxjGm15OgtDN-1">
          <mxGeometry x="342" y="114" width="270" height="25" as="geometry" />
        </mxCell>
        <mxCell id="VulXmD4ptxjGm15OgtDN-6" value="About" style="strokeColor=inherit;fillColor=inherit;gradientColor=inherit;strokeWidth=1;shadow=0;dashed=0;align=center;html=1;shape=mxgraph.mockup.text.rrect;rSize=0;fontSize=17;fontColor=#0000ff;" vertex="1" parent="VulXmD4ptxjGm15OgtDN-5">
          <mxGeometry x="67.5" width="67.5" height="25" as="geometry" />
        </mxCell>
        <mxCell id="VulXmD4ptxjGm15OgtDN-7" value="My CV" style="strokeColor=inherit;fillColor=inherit;gradientColor=inherit;strokeWidth=1;shadow=0;dashed=0;align=center;html=1;shape=mxgraph.mockup.text.rrect;rSize=0;fontSize=17;fontColor=#0000ff;" vertex="1" parent="VulXmD4ptxjGm15OgtDN-5">
          <mxGeometry x="135" width="67.5" height="25" as="geometry" />
        </mxCell>
        <mxCell id="VulXmD4ptxjGm15OgtDN-8" value="Projects" style="strokeColor=inherit;fillColor=inherit;gradientColor=inherit;strokeWidth=1;shadow=0;dashed=0;align=center;html=1;shape=mxgraph.mockup.text.rrect;rSize=0;fontSize=17;fontColor=#0000ff;" vertex="1" parent="VulXmD4ptxjGm15OgtDN-5">
          <mxGeometry x="202.5" width="67.5" height="25" as="geometry" />
        </mxCell>
        <mxCell id="VulXmD4ptxjGm15OgtDN-9" value="Home" style="strokeWidth=1;shadow=0;dashed=0;align=center;html=1;shape=mxgraph.mockup.text.rrect;rSize=0;fontSize=17;fontColor=#ffffff;fillColor=#008cff;strokeColor=#008cff;" vertex="1" parent="VulXmD4ptxjGm15OgtDN-5">
          <mxGeometry width="67.5" height="25" as="geometry" />
        </mxCell>
        <mxCell id="VulXmD4ptxjGm15OgtDN-10" value="" style="strokeWidth=1;shadow=0;dashed=0;align=center;html=1;shape=mxgraph.mockup.buttons.multiButton;strokeColor=#666666;mainText=;subText=;sketch=0;fillColor=#FFFFFF;" vertex="1" parent="VulXmD4ptxjGm15OgtDN-1">
          <mxGeometry x="680" y="114" width="80" height="30" as="geometry" />
        </mxCell>
        <mxCell id="VulXmD4ptxjGm15OgtDN-11" value="&lt;font style=&quot;font-size: 9px&quot; color=&quot;#000000&quot;&gt;Download CV&lt;/font&gt;" style="strokeWidth=1;shadow=0;dashed=0;align=center;html=1;shape=mxgraph.mockup.anchor;fontSize=16;fontColor=#ffffff;fontStyle=1;whiteSpace=wrap;" vertex="1" parent="VulXmD4ptxjGm15OgtDN-10">
          <mxGeometry y="4.800000000000001" width="80" height="12" as="geometry" />
        </mxCell>
        <mxCell id="VulXmD4ptxjGm15OgtDN-12" value="" style="strokeWidth=1;shadow=0;dashed=0;align=center;html=1;shape=mxgraph.mockup.anchor;fontSize=12;fontColor=#ffffff;fontStyle=1;whiteSpace=wrap;" vertex="1" parent="VulXmD4ptxjGm15OgtDN-10">
          <mxGeometry y="18" width="80" height="6" as="geometry" />
        </mxCell>
        <mxCell id="VulXmD4ptxjGm15OgtDN-13" value="LOGO" style="verticalLabelPosition=bottom;shadow=0;dashed=0;align=center;html=1;verticalAlign=top;strokeWidth=1;shape=mxgraph.mockup.graphics.simpleIcon;strokeColor=#999999;sketch=0;fillColor=#FFFFFF;" vertex="1" parent="VulXmD4ptxjGm15OgtDN-1">
          <mxGeometry y="110" width="80" height="30" as="geometry" />
        </mxCell>
        <mxCell id="VulXmD4ptxjGm15OgtDN-14" value="Atiq Been Rahim" style="text;html=1;strokeColor=none;fillColor=none;align=center;verticalAlign=middle;whiteSpace=wrap;rounded=0;sketch=0;" vertex="1" parent="VulXmD4ptxjGm15OgtDN-1">
          <mxGeometry x="90" y="115" width="100" height="20" as="geometry" />
        </mxCell>
        <mxCell id="VulXmD4ptxjGm15OgtDN-15" value="Image of a developer" style="verticalLabelPosition=bottom;shadow=0;dashed=0;align=center;html=1;verticalAlign=top;strokeWidth=1;shape=mxgraph.mockup.graphics.simpleIcon;strokeColor=#999999;sketch=0;fillColor=#FFFFFF;" vertex="1" parent="VulXmD4ptxjGm15OgtDN-1">
          <mxGeometry x="440" y="260" width="150" height="150" as="geometry" />
        </mxCell>
        <mxCell id="VulXmD4ptxjGm15OgtDN-16" value="Welcome Text" style="verticalLabelPosition=bottom;shadow=0;dashed=0;align=center;html=1;verticalAlign=top;strokeWidth=1;shape=mxgraph.mockup.graphics.simpleIcon;strokeColor=#999999;sketch=0;fillColor=#FFFFFF;" vertex="1" parent="VulXmD4ptxjGm15OgtDN-1">
          <mxGeometry x="210" y="260" width="190" height="150" as="geometry" />
        </mxCell>
        <mxCell id="VulXmD4ptxjGm15OgtDN-17" value="Hello!&lt;br&gt;I&#39;m Atiq&lt;br&gt;Full Stack Developer" style="text;html=1;strokeColor=none;fillColor=none;align=right;verticalAlign=middle;whiteSpace=wrap;rounded=0;sketch=0;" vertex="1" parent="VulXmD4ptxjGm15OgtDN-1">
          <mxGeometry x="270" y="310" width="130" height="40" as="geometry" />
        </mxCell>
        <mxCell id="VulXmD4ptxjGm15OgtDN-18" value="" style="edgeStyle=orthogonalEdgeStyle;rounded=0;orthogonalLoop=1;jettySize=auto;html=1;fontSize=9;" edge="1" parent="VulXmD4ptxjGm15OgtDN-1" source="VulXmD4ptxjGm15OgtDN-19" target="VulXmD4ptxjGm15OgtDN-21">
          <mxGeometry relative="1" as="geometry" />
        </mxCell>
        <mxCell id="VulXmD4ptxjGm15OgtDN-19" value="See more" style="strokeWidth=1;shadow=0;dashed=0;align=center;html=1;shape=mxgraph.mockup.buttons.button;strokeColor=#666666;fontColor=#ffffff;mainText=;buttonStyle=round;fontSize=9;fontStyle=1;fillColor=#008cff;whiteSpace=wrap;sketch=0;" vertex="1" parent="VulXmD4ptxjGm15OgtDN-1">
          <mxGeometry x="330" y="353" width="70" height="20" as="geometry" />
        </mxCell>
        <mxCell id="VulXmD4ptxjGm15OgtDN-20" value="Sticky Top Navbar scroll down in every section" style="text;html=1;strokeColor=none;fillColor=none;align=center;verticalAlign=middle;whiteSpace=wrap;rounded=0;sketch=0;fontSize=9;" vertex="1" parent="VulXmD4ptxjGm15OgtDN-1">
          <mxGeometry x="240" y="144" width="220" height="20" as="geometry" />
        </mxCell>
        <mxCell id="VulXmD4ptxjGm15OgtDN-21" value="Linked with About Section" style="whiteSpace=wrap;html=1;shadow=0;dashed=0;fontSize=9;fontColor=#ffffff;fontStyle=1;strokeColor=#666666;strokeWidth=1;fillColor=#008cff;sketch=0;" vertex="1" parent="VulXmD4ptxjGm15OgtDN-1">
          <mxGeometry x="70" y="320" width="120" height="60" as="geometry" />
        </mxCell>
        <mxCell id="VulXmD4ptxjGm15OgtDN-22" value="Link of printable version CV" style="whiteSpace=wrap;html=1;shadow=0;dashed=0;strokeColor=#666666;strokeWidth=1;fillColor=#FFFFFF;sketch=0;" vertex="1" parent="VulXmD4ptxjGm15OgtDN-1">
          <mxGeometry x="700" y="171.5" width="60" height="51.5" as="geometry" />
        </mxCell>
        <mxCell id="VulXmD4ptxjGm15OgtDN-23" value="Home Page" style="text;html=1;strokeColor=none;fillColor=none;align=center;verticalAlign=middle;whiteSpace=wrap;rounded=0;" vertex="1" parent="1">
          <mxGeometry x="40" y="40" width="760" height="20" as="geometry" />
        </mxCell>
        <mxCell id="VulXmD4ptxjGm15OgtDN-24" value="" style="edgeStyle=orthogonalEdgeStyle;rounded=0;orthogonalLoop=1;jettySize=auto;html=1;fontSize=12;" edge="1" parent="1" target="VulXmD4ptxjGm15OgtDN-22">
          <mxGeometry relative="1" as="geometry">
            <mxPoint x="760" y="227" as="sourcePoint" />
          </mxGeometry>
        </mxCell>
      </root>
    </mxGraphModel>
  </diagram>
  <diagram id="YCxfUuZtC0ncCZHMesNj" name="Page-2">
    <mxGraphModel dx="946" dy="517" grid="1" gridSize="10" guides="1" tooltips="1" connect="1" arrows="1" fold="1" page="1" pageScale="1" pageWidth="850" pageHeight="1100" math="0" shadow="0">
      <root>
        <mxCell id="e2xZojDJ7SHlwawFwyzU-0" />
        <mxCell id="e2xZojDJ7SHlwawFwyzU-1" parent="e2xZojDJ7SHlwawFwyzU-0" />
        <mxCell id="e2xZojDJ7SHlwawFwyzU-2" value="" style="strokeWidth=1;shadow=0;dashed=0;align=center;html=1;shape=mxgraph.mockup.containers.browserWindow;rSize=0;strokeColor=#666666;strokeColor2=#008cff;strokeColor3=#c4c4c4;mainText=,;recursiveResize=0;" vertex="1" parent="e2xZojDJ7SHlwawFwyzU-1">
          <mxGeometry x="40" y="80" width="760" height="520" as="geometry" />
        </mxCell>
        <mxCell id="e2xZojDJ7SHlwawFwyzU-3" value="&lt;span style=&quot;color: rgb(36 , 41 , 46) ; font-family: , &amp;#34;consolas&amp;#34; , &amp;#34;liberation mono&amp;#34; , &amp;#34;menlo&amp;#34; , monospace ; font-size: 12px ; background-color: rgb(255 , 255 , 255)&quot;&gt;Milestone Project 01 - Personal Portfolio&lt;/span&gt;" style="strokeWidth=1;shadow=0;dashed=0;align=center;html=1;shape=mxgraph.mockup.containers.anchor;fontSize=17;fontColor=#666666;align=left;" vertex="1" parent="e2xZojDJ7SHlwawFwyzU-2">
          <mxGeometry x="60" y="12" width="110" height="26" as="geometry" />
        </mxCell>
        <mxCell id="e2xZojDJ7SHlwawFwyzU-4" value="https://www.abr.com" style="strokeWidth=1;shadow=0;dashed=0;align=center;html=1;shape=mxgraph.mockup.containers.anchor;rSize=0;fontSize=17;fontColor=#666666;align=left;" vertex="1" parent="e2xZojDJ7SHlwawFwyzU-2">
          <mxGeometry x="130" y="60" width="250" height="26" as="geometry" />
        </mxCell>
        <mxCell id="e2xZojDJ7SHlwawFwyzU-5" value="Contact" style="strokeColor=inherit;fillColor=inherit;gradientColor=inherit;strokeWidth=1;shadow=0;dashed=0;align=center;html=1;shape=mxgraph.mockup.text.rrect;rSize=0;fontSize=17;fontColor=#0000ff;sketch=0;" vertex="1" parent="e2xZojDJ7SHlwawFwyzU-2">
          <mxGeometry x="612" y="114" width="67.5" height="25" as="geometry" />
        </mxCell>
        <mxCell id="e2xZojDJ7SHlwawFwyzU-6" value="" style="strokeWidth=1;shadow=0;dashed=0;align=center;html=1;shape=mxgraph.mockup.text.rrect;rSize=0;strokeColor=#666666;sketch=0;" vertex="1" parent="e2xZojDJ7SHlwawFwyzU-2">
          <mxGeometry x="342" y="114" width="270" height="25" as="geometry" />
        </mxCell>
        <mxCell id="e2xZojDJ7SHlwawFwyzU-7" value="About" style="strokeColor=inherit;fillColor=inherit;gradientColor=inherit;strokeWidth=1;shadow=0;dashed=0;align=center;html=1;shape=mxgraph.mockup.text.rrect;rSize=0;fontSize=17;fontColor=#0000ff;" vertex="1" parent="e2xZojDJ7SHlwawFwyzU-6">
          <mxGeometry x="67.5" width="67.5" height="25" as="geometry" />
        </mxCell>
        <mxCell id="e2xZojDJ7SHlwawFwyzU-8" value="My CV" style="strokeColor=inherit;fillColor=inherit;gradientColor=inherit;strokeWidth=1;shadow=0;dashed=0;align=center;html=1;shape=mxgraph.mockup.text.rrect;rSize=0;fontSize=17;fontColor=#0000ff;" vertex="1" parent="e2xZojDJ7SHlwawFwyzU-6">
          <mxGeometry x="135" width="67.5" height="25" as="geometry" />
        </mxCell>
        <mxCell id="e2xZojDJ7SHlwawFwyzU-9" value="Projects" style="strokeColor=inherit;fillColor=inherit;gradientColor=inherit;strokeWidth=1;shadow=0;dashed=0;align=center;html=1;shape=mxgraph.mockup.text.rrect;rSize=0;fontSize=17;fontColor=#0000ff;" vertex="1" parent="e2xZojDJ7SHlwawFwyzU-6">
          <mxGeometry x="202.5" width="67.5" height="25" as="geometry" />
        </mxCell>
        <mxCell id="e2xZojDJ7SHlwawFwyzU-10" value="Home" style="strokeWidth=1;shadow=0;dashed=0;align=center;html=1;shape=mxgraph.mockup.text.rrect;rSize=0;fontSize=17;fontColor=#ffffff;fillColor=#008cff;strokeColor=#008cff;" vertex="1" parent="e2xZojDJ7SHlwawFwyzU-6">
          <mxGeometry width="67.5" height="25" as="geometry" />
        </mxCell>
        <mxCell id="e2xZojDJ7SHlwawFwyzU-11" value="" style="strokeWidth=1;shadow=0;dashed=0;align=center;html=1;shape=mxgraph.mockup.buttons.multiButton;strokeColor=#666666;mainText=;subText=;sketch=0;fillColor=#FFFFFF;" vertex="1" parent="e2xZojDJ7SHlwawFwyzU-2">
          <mxGeometry x="680" y="114" width="80" height="30" as="geometry" />
        </mxCell>
        <mxCell id="e2xZojDJ7SHlwawFwyzU-12" value="&lt;font style=&quot;font-size: 9px&quot; color=&quot;#000000&quot;&gt;Download CV&lt;/font&gt;" style="strokeWidth=1;shadow=0;dashed=0;align=center;html=1;shape=mxgraph.mockup.anchor;fontSize=16;fontColor=#ffffff;fontStyle=1;whiteSpace=wrap;" vertex="1" parent="e2xZojDJ7SHlwawFwyzU-11">
          <mxGeometry y="4.800000000000001" width="80" height="12" as="geometry" />
        </mxCell>
        <mxCell id="e2xZojDJ7SHlwawFwyzU-13" value="" style="strokeWidth=1;shadow=0;dashed=0;align=center;html=1;shape=mxgraph.mockup.anchor;fontSize=12;fontColor=#ffffff;fontStyle=1;whiteSpace=wrap;" vertex="1" parent="e2xZojDJ7SHlwawFwyzU-11">
          <mxGeometry y="18" width="80" height="6" as="geometry" />
        </mxCell>
        <mxCell id="e2xZojDJ7SHlwawFwyzU-14" value="LOGO" style="verticalLabelPosition=bottom;shadow=0;dashed=0;align=center;html=1;verticalAlign=top;strokeWidth=1;shape=mxgraph.mockup.graphics.simpleIcon;strokeColor=#999999;sketch=0;fillColor=#FFFFFF;" vertex="1" parent="e2xZojDJ7SHlwawFwyzU-2">
          <mxGeometry y="110" width="80" height="30" as="geometry" />
        </mxCell>
        <mxCell id="e2xZojDJ7SHlwawFwyzU-15" value="Atiq Been Rahim" style="text;html=1;strokeColor=none;fillColor=none;align=center;verticalAlign=middle;whiteSpace=wrap;rounded=0;sketch=0;" vertex="1" parent="e2xZojDJ7SHlwawFwyzU-2">
          <mxGeometry x="90" y="115" width="100" height="20" as="geometry" />
        </mxCell>
        <mxCell id="e2xZojDJ7SHlwawFwyzU-16" value="About me Text left Align" style="verticalLabelPosition=bottom;shadow=0;dashed=0;align=center;html=1;verticalAlign=top;strokeWidth=1;shape=mxgraph.mockup.graphics.simpleIcon;strokeColor=#999999;sketch=0;fillColor=#FFFFFF;" vertex="1" parent="e2xZojDJ7SHlwawFwyzU-2">
          <mxGeometry x="420" y="220" width="290" height="220" as="geometry" />
        </mxCell>
        <mxCell id="e2xZojDJ7SHlwawFwyzU-17" value="Icon of Smily from Frontawesome" style="verticalLabelPosition=bottom;shadow=0;dashed=0;align=center;html=1;verticalAlign=top;strokeWidth=1;shape=mxgraph.mockup.graphics.simpleIcon;strokeColor=#999999;sketch=0;fillColor=#FFFFFF;" vertex="1" parent="e2xZojDJ7SHlwawFwyzU-2">
          <mxGeometry x="50" y="220" width="300" height="230" as="geometry" />
        </mxCell>
        <mxCell id="e2xZojDJ7SHlwawFwyzU-18" value="" style="edgeStyle=orthogonalEdgeStyle;rounded=0;orthogonalLoop=1;jettySize=auto;html=1;fontSize=9;" edge="1" parent="e2xZojDJ7SHlwawFwyzU-2" source="e2xZojDJ7SHlwawFwyzU-19" target="e2xZojDJ7SHlwawFwyzU-22">
          <mxGeometry relative="1" as="geometry" />
        </mxCell>
        <mxCell id="e2xZojDJ7SHlwawFwyzU-19" value="Learn More" style="strokeWidth=1;shadow=0;dashed=0;align=center;html=1;shape=mxgraph.mockup.buttons.button;strokeColor=#666666;fontColor=#ffffff;mainText=;buttonStyle=round;fontSize=9;fontStyle=1;fillColor=#008cff;whiteSpace=wrap;sketch=0;" vertex="1" parent="e2xZojDJ7SHlwawFwyzU-2">
          <mxGeometry x="430" y="340" width="70" height="20" as="geometry" />
        </mxCell>
        <mxCell id="e2xZojDJ7SHlwawFwyzU-20" value="" style="shape=image;html=1;verticalAlign=top;verticalLabelPosition=bottom;labelBackgroundColor=#ffffff;imageAspect=0;aspect=fixed;image=https://cdn1.iconfinder.com/data/icons/hawcons/32/698794-icon-51-laughing-face-128.png;sketch=0;fillColor=#FFFFFF;fontSize=9;align=right;" vertex="1" parent="e2xZojDJ7SHlwawFwyzU-2">
          <mxGeometry x="100" y="240" width="190" height="190" as="geometry" />
        </mxCell>
        <mxCell id="e2xZojDJ7SHlwawFwyzU-21" value="&lt;h1&gt;About&lt;/h1&gt;&lt;div&gt;A Little Bit About Me&lt;/div&gt;&lt;p&gt;Lorem ipsum dolor sit amet, consectetur adipisicing elit, sed do eiusmod tempor incididunt ut labore et dolore magna aliqua.&lt;/p&gt;" style="text;html=1;strokeColor=none;fillColor=none;spacing=5;spacingTop=-20;whiteSpace=wrap;overflow=hidden;rounded=0;sketch=0;fontSize=9;align=left;" vertex="1" parent="e2xZojDJ7SHlwawFwyzU-2">
          <mxGeometry x="422" y="240" width="238" height="100" as="geometry" />
        </mxCell>
        <mxCell id="e2xZojDJ7SHlwawFwyzU-22" value="Linked with My CV section" style="whiteSpace=wrap;html=1;shadow=0;dashed=0;fontSize=9;fontColor=#ffffff;fontStyle=1;strokeColor=#666666;strokeWidth=1;fillColor=#008cff;sketch=0;" vertex="1" parent="e2xZojDJ7SHlwawFwyzU-2">
          <mxGeometry x="555" y="320" width="120" height="60" as="geometry" />
        </mxCell>
        <mxCell id="e2xZojDJ7SHlwawFwyzU-23" value="About Me" style="text;html=1;strokeColor=none;fillColor=none;align=center;verticalAlign=middle;whiteSpace=wrap;rounded=0;" vertex="1" parent="e2xZojDJ7SHlwawFwyzU-1">
          <mxGeometry x="40" y="40" width="760" height="20" as="geometry" />
        </mxCell>
        <mxCell id="e2xZojDJ7SHlwawFwyzU-24" value="Sticky Top Navbar scroll down in every section" style="text;html=1;strokeColor=none;fillColor=none;align=center;verticalAlign=middle;whiteSpace=wrap;rounded=0;sketch=0;fontSize=9;" vertex="1" parent="e2xZojDJ7SHlwawFwyzU-1">
          <mxGeometry x="280" y="224" width="220" height="20" as="geometry" />
        </mxCell>
        <mxCell id="e2xZojDJ7SHlwawFwyzU-25" value="" style="edgeStyle=orthogonalEdgeStyle;rounded=0;orthogonalLoop=1;jettySize=auto;html=1;fontSize=12;" edge="1" parent="e2xZojDJ7SHlwawFwyzU-1" target="e2xZojDJ7SHlwawFwyzU-26">
          <mxGeometry relative="1" as="geometry">
            <mxPoint x="760" y="227" as="sourcePoint" />
          </mxGeometry>
        </mxCell>
        <mxCell id="e2xZojDJ7SHlwawFwyzU-26" value="Link of printable version CV" style="whiteSpace=wrap;html=1;shadow=0;dashed=0;strokeColor=#666666;strokeWidth=1;fillColor=#FFFFFF;sketch=0;" vertex="1" parent="e2xZojDJ7SHlwawFwyzU-1">
          <mxGeometry x="750" y="251.5" width="60" height="51.5" as="geometry" />
        </mxCell>
      </root>
    </mxGraphModel>
  </diagram>
  <diagram id="9nBmhgYrJ5hlhkG058wX" name="Page-3">
    <mxGraphModel dx="946" dy="517" grid="1" gridSize="10" guides="1" tooltips="1" connect="1" arrows="1" fold="1" page="1" pageScale="1" pageWidth="850" pageHeight="1100" math="0" shadow="0">
      <root>
        <mxCell id="DRVWkK2qy-v4PYdvfsdh-0" />
        <mxCell id="DRVWkK2qy-v4PYdvfsdh-1" parent="DRVWkK2qy-v4PYdvfsdh-0" />
        <mxCell id="DRVWkK2qy-v4PYdvfsdh-2" value="" style="strokeWidth=1;shadow=0;dashed=0;align=center;html=1;shape=mxgraph.mockup.containers.browserWindow;rSize=0;strokeColor=#666666;strokeColor2=#008cff;strokeColor3=#c4c4c4;mainText=,;recursiveResize=0;" vertex="1" parent="DRVWkK2qy-v4PYdvfsdh-1">
          <mxGeometry x="40" y="80" width="760" height="560" as="geometry" />
        </mxCell>
        <mxCell id="DRVWkK2qy-v4PYdvfsdh-3" value="&lt;span style=&quot;color: rgb(36 , 41 , 46) ; font-family: , &amp;#34;consolas&amp;#34; , &amp;#34;liberation mono&amp;#34; , &amp;#34;menlo&amp;#34; , monospace ; font-size: 12px ; background-color: rgb(255 , 255 , 255)&quot;&gt;Milestone Project 01 - Personal Portfolio&lt;/span&gt;" style="strokeWidth=1;shadow=0;dashed=0;align=center;html=1;shape=mxgraph.mockup.containers.anchor;fontSize=17;fontColor=#666666;align=left;" vertex="1" parent="DRVWkK2qy-v4PYdvfsdh-2">
          <mxGeometry x="60" y="12" width="110" height="26" as="geometry" />
        </mxCell>
        <mxCell id="DRVWkK2qy-v4PYdvfsdh-4" value="https://www.abr.com" style="strokeWidth=1;shadow=0;dashed=0;align=center;html=1;shape=mxgraph.mockup.containers.anchor;rSize=0;fontSize=17;fontColor=#666666;align=left;" vertex="1" parent="DRVWkK2qy-v4PYdvfsdh-2">
          <mxGeometry x="130" y="60" width="250" height="26" as="geometry" />
        </mxCell>
        <mxCell id="DRVWkK2qy-v4PYdvfsdh-5" value="Contact" style="strokeColor=inherit;fillColor=inherit;gradientColor=inherit;strokeWidth=1;shadow=0;dashed=0;align=center;html=1;shape=mxgraph.mockup.text.rrect;rSize=0;fontSize=17;fontColor=#0000ff;sketch=0;" vertex="1" parent="DRVWkK2qy-v4PYdvfsdh-2">
          <mxGeometry x="612" y="114" width="67.5" height="25" as="geometry" />
        </mxCell>
        <mxCell id="DRVWkK2qy-v4PYdvfsdh-6" value="" style="strokeWidth=1;shadow=0;dashed=0;align=center;html=1;shape=mxgraph.mockup.text.rrect;rSize=0;strokeColor=#666666;sketch=0;" vertex="1" parent="DRVWkK2qy-v4PYdvfsdh-2">
          <mxGeometry x="342" y="114" width="270" height="25" as="geometry" />
        </mxCell>
        <mxCell id="DRVWkK2qy-v4PYdvfsdh-7" value="About" style="strokeColor=inherit;fillColor=inherit;gradientColor=inherit;strokeWidth=1;shadow=0;dashed=0;align=center;html=1;shape=mxgraph.mockup.text.rrect;rSize=0;fontSize=17;fontColor=#0000ff;" vertex="1" parent="DRVWkK2qy-v4PYdvfsdh-6">
          <mxGeometry x="67.5" width="67.5" height="25" as="geometry" />
        </mxCell>
        <mxCell id="DRVWkK2qy-v4PYdvfsdh-8" value="My CV" style="strokeColor=inherit;fillColor=inherit;gradientColor=inherit;strokeWidth=1;shadow=0;dashed=0;align=center;html=1;shape=mxgraph.mockup.text.rrect;rSize=0;fontSize=17;fontColor=#0000ff;" vertex="1" parent="DRVWkK2qy-v4PYdvfsdh-6">
          <mxGeometry x="135" width="67.5" height="25" as="geometry" />
        </mxCell>
        <mxCell id="DRVWkK2qy-v4PYdvfsdh-9" value="Projects" style="strokeColor=inherit;fillColor=inherit;gradientColor=inherit;strokeWidth=1;shadow=0;dashed=0;align=center;html=1;shape=mxgraph.mockup.text.rrect;rSize=0;fontSize=17;fontColor=#0000ff;" vertex="1" parent="DRVWkK2qy-v4PYdvfsdh-6">
          <mxGeometry x="202.5" width="67.5" height="25" as="geometry" />
        </mxCell>
        <mxCell id="DRVWkK2qy-v4PYdvfsdh-10" value="Home" style="strokeWidth=1;shadow=0;dashed=0;align=center;html=1;shape=mxgraph.mockup.text.rrect;rSize=0;fontSize=17;fontColor=#ffffff;fillColor=#008cff;strokeColor=#008cff;" vertex="1" parent="DRVWkK2qy-v4PYdvfsdh-6">
          <mxGeometry width="67.5" height="25" as="geometry" />
        </mxCell>
        <mxCell id="DRVWkK2qy-v4PYdvfsdh-11" value="" style="strokeWidth=1;shadow=0;dashed=0;align=center;html=1;shape=mxgraph.mockup.buttons.multiButton;strokeColor=#666666;mainText=;subText=;sketch=0;fillColor=#FFFFFF;" vertex="1" parent="DRVWkK2qy-v4PYdvfsdh-2">
          <mxGeometry x="680" y="114" width="80" height="30" as="geometry" />
        </mxCell>
        <mxCell id="DRVWkK2qy-v4PYdvfsdh-12" value="&lt;font style=&quot;font-size: 9px&quot; color=&quot;#000000&quot;&gt;Download CV&lt;/font&gt;" style="strokeWidth=1;shadow=0;dashed=0;align=center;html=1;shape=mxgraph.mockup.anchor;fontSize=16;fontColor=#ffffff;fontStyle=1;whiteSpace=wrap;" vertex="1" parent="DRVWkK2qy-v4PYdvfsdh-11">
          <mxGeometry y="4.800000000000001" width="80" height="12" as="geometry" />
        </mxCell>
        <mxCell id="DRVWkK2qy-v4PYdvfsdh-13" value="" style="strokeWidth=1;shadow=0;dashed=0;align=center;html=1;shape=mxgraph.mockup.anchor;fontSize=12;fontColor=#ffffff;fontStyle=1;whiteSpace=wrap;" vertex="1" parent="DRVWkK2qy-v4PYdvfsdh-11">
          <mxGeometry y="18" width="80" height="6" as="geometry" />
        </mxCell>
        <mxCell id="DRVWkK2qy-v4PYdvfsdh-14" value="LOGO" style="verticalLabelPosition=bottom;shadow=0;dashed=0;align=center;html=1;verticalAlign=top;strokeWidth=1;shape=mxgraph.mockup.graphics.simpleIcon;strokeColor=#999999;sketch=0;fillColor=#FFFFFF;" vertex="1" parent="DRVWkK2qy-v4PYdvfsdh-2">
          <mxGeometry y="110" width="80" height="30" as="geometry" />
        </mxCell>
        <mxCell id="DRVWkK2qy-v4PYdvfsdh-15" value="Atiq Been Rahim" style="text;html=1;strokeColor=none;fillColor=none;align=center;verticalAlign=middle;whiteSpace=wrap;rounded=0;sketch=0;" vertex="1" parent="DRVWkK2qy-v4PYdvfsdh-2">
          <mxGeometry x="90" y="115" width="100" height="20" as="geometry" />
        </mxCell>
        <mxCell id="DRVWkK2qy-v4PYdvfsdh-16" value="Work History Section" style="verticalLabelPosition=bottom;shadow=0;dashed=0;align=center;html=1;verticalAlign=top;strokeWidth=1;shape=mxgraph.mockup.graphics.simpleIcon;strokeColor=#999999;sketch=0;fillColor=#FFFFFF;" vertex="1" parent="DRVWkK2qy-v4PYdvfsdh-2">
          <mxGeometry x="420" y="220" width="290" height="290" as="geometry" />
        </mxCell>
        <mxCell id="DRVWkK2qy-v4PYdvfsdh-17" value="My Skills Section" style="verticalLabelPosition=bottom;shadow=0;dashed=0;align=center;html=1;verticalAlign=top;strokeWidth=1;shape=mxgraph.mockup.graphics.simpleIcon;strokeColor=#999999;sketch=0;fillColor=#FFFFFF;" vertex="1" parent="DRVWkK2qy-v4PYdvfsdh-2">
          <mxGeometry x="50" y="220" width="300" height="290" as="geometry" />
        </mxCell>
        <mxCell id="DRVWkK2qy-v4PYdvfsdh-18" value="&lt;h1&gt;Work History&lt;/h1&gt;&lt;p&gt;&lt;br&gt;&lt;/p&gt;" style="text;html=1;strokeColor=none;fillColor=none;spacing=5;spacingTop=-20;whiteSpace=wrap;overflow=hidden;rounded=0;sketch=0;fontSize=9;align=left;" vertex="1" parent="DRVWkK2qy-v4PYdvfsdh-2">
          <mxGeometry x="420" y="220" width="238" height="30" as="geometry" />
        </mxCell>
        <mxCell id="DRVWkK2qy-v4PYdvfsdh-19" value="&lt;h1&gt;My Skills&lt;/h1&gt;" style="text;html=1;strokeColor=none;fillColor=none;spacing=5;spacingTop=-20;whiteSpace=wrap;overflow=hidden;rounded=0;sketch=0;fontSize=9;align=left;" vertex="1" parent="DRVWkK2qy-v4PYdvfsdh-2">
          <mxGeometry x="50" y="220" width="238" height="30" as="geometry" />
        </mxCell>
        <mxCell id="DRVWkK2qy-v4PYdvfsdh-20" value="&lt;h1&gt;Front End&lt;/h1&gt;&lt;p&gt;Lorem ipsum dolor sit amet, consectetur adipisicing elit, sed do eiusmod tempor incididunt ut labore et dolore magna aliqua.&lt;/p&gt;" style="text;html=1;strokeColor=none;fillColor=none;spacing=5;spacingTop=-20;whiteSpace=wrap;overflow=hidden;rounded=0;sketch=0;fontSize=9;align=left;" vertex="1" parent="DRVWkK2qy-v4PYdvfsdh-2">
          <mxGeometry x="50" y="252" width="190" height="80" as="geometry" />
        </mxCell>
        <mxCell id="DRVWkK2qy-v4PYdvfsdh-21" value="&lt;h1&gt;Back End&lt;/h1&gt;&lt;p&gt;Lorem ipsum dolor sit amet, consectetur adipisicing elit, sed do eiusmod tempor incididunt ut labore et dolore magna aliqua.&lt;/p&gt;" style="text;html=1;strokeColor=none;fillColor=none;spacing=5;spacingTop=-20;whiteSpace=wrap;overflow=hidden;rounded=0;sketch=0;fontSize=9;align=left;" vertex="1" parent="DRVWkK2qy-v4PYdvfsdh-2">
          <mxGeometry x="50" y="330" width="190" height="80" as="geometry" />
        </mxCell>
        <mxCell id="DRVWkK2qy-v4PYdvfsdh-22" value="Progress Bar" style="verticalLabelPosition=bottom;shadow=0;dashed=0;align=center;html=1;verticalAlign=top;strokeWidth=1;shape=mxgraph.mockup.graphics.barChart;strokeColor=none;strokeColor2=none;strokeColor3=#666666;fillColor2=#008cff;fillColor3=#dddddd;sketch=0;fillColor=#FFFFFF;fontSize=9;" vertex="1" parent="DRVWkK2qy-v4PYdvfsdh-2">
          <mxGeometry x="60" y="420" width="168" height="70" as="geometry" />
        </mxCell>
        <mxCell id="DRVWkK2qy-v4PYdvfsdh-23" value="" style="line;strokeWidth=2;direction=south;html=1;sketch=0;fillColor=#FFFFFF;fontSize=9;align=left;" vertex="1" parent="DRVWkK2qy-v4PYdvfsdh-2">
          <mxGeometry x="450" y="260" width="10" height="220" as="geometry" />
        </mxCell>
        <mxCell id="DRVWkK2qy-v4PYdvfsdh-24" value="" style="strokeWidth=2;html=1;shape=mxgraph.flowchart.start_2;whiteSpace=wrap;sketch=0;fillColor=#FFFFFF;fontSize=9;align=left;" vertex="1" parent="DRVWkK2qy-v4PYdvfsdh-2">
          <mxGeometry x="450" y="287" width="10" height="10" as="geometry" />
        </mxCell>
        <mxCell id="DRVWkK2qy-v4PYdvfsdh-25" value="" style="strokeWidth=2;html=1;shape=mxgraph.flowchart.start_2;whiteSpace=wrap;sketch=0;fillColor=#FFFFFF;fontSize=9;align=left;" vertex="1" parent="DRVWkK2qy-v4PYdvfsdh-2">
          <mxGeometry x="450" y="359" width="10" height="10" as="geometry" />
        </mxCell>
        <mxCell id="DRVWkK2qy-v4PYdvfsdh-26" value="" style="strokeWidth=2;html=1;shape=mxgraph.flowchart.start_2;whiteSpace=wrap;sketch=0;fillColor=#FFFFFF;fontSize=9;align=left;" vertex="1" parent="DRVWkK2qy-v4PYdvfsdh-2">
          <mxGeometry x="450" y="420" width="10" height="10" as="geometry" />
        </mxCell>
        <mxCell id="DRVWkK2qy-v4PYdvfsdh-27" value="Timeline&lt;br&gt;Work Place Name&lt;br&gt;Position" style="text;html=1;strokeColor=none;fillColor=none;align=left;verticalAlign=top;whiteSpace=wrap;rounded=0;sketch=0;fontSize=9;" vertex="1" parent="DRVWkK2qy-v4PYdvfsdh-2">
          <mxGeometry x="470" y="282" width="90" height="48" as="geometry" />
        </mxCell>
        <mxCell id="DRVWkK2qy-v4PYdvfsdh-28" value="Timeline&lt;br&gt;Work Place Name&lt;br&gt;Position" style="text;html=1;strokeColor=none;fillColor=none;align=left;verticalAlign=top;whiteSpace=wrap;rounded=0;sketch=0;fontSize=9;" vertex="1" parent="DRVWkK2qy-v4PYdvfsdh-2">
          <mxGeometry x="470" y="346" width="90" height="48" as="geometry" />
        </mxCell>
        <mxCell id="DRVWkK2qy-v4PYdvfsdh-29" value="Timeline&lt;br&gt;Work Place Name&lt;br&gt;Position" style="text;html=1;strokeColor=none;fillColor=none;align=left;verticalAlign=top;whiteSpace=wrap;rounded=0;sketch=0;fontSize=9;" vertex="1" parent="DRVWkK2qy-v4PYdvfsdh-2">
          <mxGeometry x="470" y="410" width="90" height="48" as="geometry" />
        </mxCell>
        <mxCell id="DRVWkK2qy-v4PYdvfsdh-30" value="My CV" style="text;html=1;strokeColor=none;fillColor=none;align=center;verticalAlign=middle;whiteSpace=wrap;rounded=0;" vertex="1" parent="DRVWkK2qy-v4PYdvfsdh-1">
          <mxGeometry x="40" y="40" width="760" height="20" as="geometry" />
        </mxCell>
        <mxCell id="DRVWkK2qy-v4PYdvfsdh-31" value="Sticky Top Navbar scroll down in every section" style="text;html=1;strokeColor=none;fillColor=none;align=center;verticalAlign=middle;whiteSpace=wrap;rounded=0;sketch=0;fontSize=9;" vertex="1" parent="DRVWkK2qy-v4PYdvfsdh-1">
          <mxGeometry x="280" y="224" width="220" height="20" as="geometry" />
        </mxCell>
        <mxCell id="DRVWkK2qy-v4PYdvfsdh-32" value="" style="edgeStyle=orthogonalEdgeStyle;rounded=0;orthogonalLoop=1;jettySize=auto;html=1;fontSize=12;" edge="1" parent="DRVWkK2qy-v4PYdvfsdh-1" target="DRVWkK2qy-v4PYdvfsdh-33">
          <mxGeometry relative="1" as="geometry">
            <mxPoint x="760" y="227" as="sourcePoint" />
          </mxGeometry>
        </mxCell>
        <mxCell id="DRVWkK2qy-v4PYdvfsdh-33" value="Link of printable version CV" style="whiteSpace=wrap;html=1;shadow=0;dashed=0;strokeColor=#666666;strokeWidth=1;fillColor=#FFFFFF;sketch=0;" vertex="1" parent="DRVWkK2qy-v4PYdvfsdh-1">
          <mxGeometry x="750" y="251.5" width="60" height="51.5" as="geometry" />
        </mxCell>
      </root>
    </mxGraphModel>
  </diagram>
  <diagram id="fgJdMSd6JNDgVRsv0ITg" name="Page-4">
    <mxGraphModel dx="946" dy="517" grid="1" gridSize="10" guides="1" tooltips="1" connect="1" arrows="1" fold="1" page="1" pageScale="1" pageWidth="850" pageHeight="1100" math="0" shadow="0">
      <root>
        <mxCell id="FgORnSjvG6CzXv4xcdTQ-0" />
        <mxCell id="FgORnSjvG6CzXv4xcdTQ-1" parent="FgORnSjvG6CzXv4xcdTQ-0" />
        <mxCell id="FgORnSjvG6CzXv4xcdTQ-2" value="" style="strokeWidth=1;shadow=0;dashed=0;align=center;html=1;shape=mxgraph.mockup.containers.browserWindow;rSize=0;strokeColor=#666666;strokeColor2=#008cff;strokeColor3=#c4c4c4;mainText=,;recursiveResize=0;" vertex="1" parent="FgORnSjvG6CzXv4xcdTQ-1">
          <mxGeometry x="40" y="83" width="760" height="677" as="geometry" />
        </mxCell>
        <mxCell id="FgORnSjvG6CzXv4xcdTQ-3" value="&lt;span style=&quot;color: rgb(36 , 41 , 46) ; font-family: , &amp;#34;consolas&amp;#34; , &amp;#34;liberation mono&amp;#34; , &amp;#34;menlo&amp;#34; , monospace ; font-size: 12px ; background-color: rgb(255 , 255 , 255)&quot;&gt;Milestone Project 01 - Personal Portfolio&lt;/span&gt;" style="strokeWidth=1;shadow=0;dashed=0;align=center;html=1;shape=mxgraph.mockup.containers.anchor;fontSize=17;fontColor=#666666;align=left;" vertex="1" parent="FgORnSjvG6CzXv4xcdTQ-2">
          <mxGeometry x="60" y="12" width="110" height="26" as="geometry" />
        </mxCell>
        <mxCell id="FgORnSjvG6CzXv4xcdTQ-4" value="https://www.abr.com" style="strokeWidth=1;shadow=0;dashed=0;align=center;html=1;shape=mxgraph.mockup.containers.anchor;rSize=0;fontSize=17;fontColor=#666666;align=left;" vertex="1" parent="FgORnSjvG6CzXv4xcdTQ-2">
          <mxGeometry x="130" y="60" width="250" height="26" as="geometry" />
        </mxCell>
        <mxCell id="FgORnSjvG6CzXv4xcdTQ-5" value="Contact" style="strokeColor=inherit;fillColor=inherit;gradientColor=inherit;strokeWidth=1;shadow=0;dashed=0;align=center;html=1;shape=mxgraph.mockup.text.rrect;rSize=0;fontSize=17;fontColor=#0000ff;sketch=0;" vertex="1" parent="FgORnSjvG6CzXv4xcdTQ-2">
          <mxGeometry x="612" y="114" width="67.5" height="25" as="geometry" />
        </mxCell>
        <mxCell id="FgORnSjvG6CzXv4xcdTQ-6" value="" style="strokeWidth=1;shadow=0;dashed=0;align=center;html=1;shape=mxgraph.mockup.text.rrect;rSize=0;strokeColor=#666666;sketch=0;" vertex="1" parent="FgORnSjvG6CzXv4xcdTQ-2">
          <mxGeometry x="342" y="114" width="270" height="25" as="geometry" />
        </mxCell>
        <mxCell id="FgORnSjvG6CzXv4xcdTQ-7" value="About" style="strokeColor=inherit;fillColor=inherit;gradientColor=inherit;strokeWidth=1;shadow=0;dashed=0;align=center;html=1;shape=mxgraph.mockup.text.rrect;rSize=0;fontSize=17;fontColor=#0000ff;" vertex="1" parent="FgORnSjvG6CzXv4xcdTQ-6">
          <mxGeometry x="67.5" width="67.5" height="25" as="geometry" />
        </mxCell>
        <mxCell id="FgORnSjvG6CzXv4xcdTQ-8" value="My CV" style="strokeColor=inherit;fillColor=inherit;gradientColor=inherit;strokeWidth=1;shadow=0;dashed=0;align=center;html=1;shape=mxgraph.mockup.text.rrect;rSize=0;fontSize=17;fontColor=#0000ff;" vertex="1" parent="FgORnSjvG6CzXv4xcdTQ-6">
          <mxGeometry x="135" width="67.5" height="25" as="geometry" />
        </mxCell>
        <mxCell id="FgORnSjvG6CzXv4xcdTQ-9" value="Projects" style="strokeColor=inherit;fillColor=inherit;gradientColor=inherit;strokeWidth=1;shadow=0;dashed=0;align=center;html=1;shape=mxgraph.mockup.text.rrect;rSize=0;fontSize=17;fontColor=#0000ff;" vertex="1" parent="FgORnSjvG6CzXv4xcdTQ-6">
          <mxGeometry x="202.5" width="67.5" height="25" as="geometry" />
        </mxCell>
        <mxCell id="FgORnSjvG6CzXv4xcdTQ-10" value="Home" style="strokeWidth=1;shadow=0;dashed=0;align=center;html=1;shape=mxgraph.mockup.text.rrect;rSize=0;fontSize=17;fontColor=#ffffff;fillColor=#008cff;strokeColor=#008cff;" vertex="1" parent="FgORnSjvG6CzXv4xcdTQ-6">
          <mxGeometry width="67.5" height="25" as="geometry" />
        </mxCell>
        <mxCell id="FgORnSjvG6CzXv4xcdTQ-11" value="" style="strokeWidth=1;shadow=0;dashed=0;align=center;html=1;shape=mxgraph.mockup.buttons.multiButton;strokeColor=#666666;mainText=;subText=;sketch=0;fillColor=#FFFFFF;" vertex="1" parent="FgORnSjvG6CzXv4xcdTQ-2">
          <mxGeometry x="680" y="114" width="80" height="30" as="geometry" />
        </mxCell>
        <mxCell id="FgORnSjvG6CzXv4xcdTQ-12" value="&lt;font style=&quot;font-size: 9px&quot; color=&quot;#000000&quot;&gt;Download CV&lt;/font&gt;" style="strokeWidth=1;shadow=0;dashed=0;align=center;html=1;shape=mxgraph.mockup.anchor;fontSize=16;fontColor=#ffffff;fontStyle=1;whiteSpace=wrap;" vertex="1" parent="FgORnSjvG6CzXv4xcdTQ-11">
          <mxGeometry y="4.800000000000001" width="80" height="12" as="geometry" />
        </mxCell>
        <mxCell id="FgORnSjvG6CzXv4xcdTQ-13" value="" style="strokeWidth=1;shadow=0;dashed=0;align=center;html=1;shape=mxgraph.mockup.anchor;fontSize=12;fontColor=#ffffff;fontStyle=1;whiteSpace=wrap;" vertex="1" parent="FgORnSjvG6CzXv4xcdTQ-11">
          <mxGeometry y="18" width="80" height="6" as="geometry" />
        </mxCell>
        <mxCell id="FgORnSjvG6CzXv4xcdTQ-14" value="LOGO" style="verticalLabelPosition=bottom;shadow=0;dashed=0;align=center;html=1;verticalAlign=top;strokeWidth=1;shape=mxgraph.mockup.graphics.simpleIcon;strokeColor=#999999;sketch=0;fillColor=#FFFFFF;" vertex="1" parent="FgORnSjvG6CzXv4xcdTQ-2">
          <mxGeometry y="110" width="80" height="30" as="geometry" />
        </mxCell>
        <mxCell id="FgORnSjvG6CzXv4xcdTQ-15" value="Atiq Been Rahim" style="text;html=1;strokeColor=none;fillColor=none;align=center;verticalAlign=middle;whiteSpace=wrap;rounded=0;sketch=0;" vertex="1" parent="FgORnSjvG6CzXv4xcdTQ-2">
          <mxGeometry x="90" y="115" width="100" height="20" as="geometry" />
        </mxCell>
        <mxCell id="FgORnSjvG6CzXv4xcdTQ-16" value="Project 1 Card" style="verticalLabelPosition=bottom;shadow=0;dashed=0;align=center;html=1;verticalAlign=top;strokeWidth=1;shape=mxgraph.mockup.graphics.simpleIcon;strokeColor=#999999;sketch=0;fillColor=#FFFFFF;" vertex="1" parent="FgORnSjvG6CzXv4xcdTQ-2">
          <mxGeometry x="50" y="230" width="200" height="220" as="geometry" />
        </mxCell>
        <mxCell id="FgORnSjvG6CzXv4xcdTQ-17" value="Learn More" style="strokeWidth=1;shadow=0;dashed=0;align=center;html=1;shape=mxgraph.mockup.buttons.button;strokeColor=#666666;fontColor=#ffffff;mainText=;buttonStyle=round;fontSize=9;fontStyle=1;fillColor=#008cff;whiteSpace=wrap;sketch=0;" vertex="1" parent="FgORnSjvG6CzXv4xcdTQ-2">
          <mxGeometry x="430" y="340" width="70" height="20" as="geometry" />
        </mxCell>
        <mxCell id="FgORnSjvG6CzXv4xcdTQ-18" value="Project 2 Card" style="verticalLabelPosition=bottom;shadow=0;dashed=0;align=center;html=1;verticalAlign=top;strokeWidth=1;shape=mxgraph.mockup.graphics.simpleIcon;strokeColor=#999999;sketch=0;fillColor=#FFFFFF;" vertex="1" parent="FgORnSjvG6CzXv4xcdTQ-2">
          <mxGeometry x="300" y="230" width="200" height="220" as="geometry" />
        </mxCell>
        <mxCell id="FgORnSjvG6CzXv4xcdTQ-19" value="Project 3 Card" style="verticalLabelPosition=bottom;shadow=0;dashed=0;align=center;html=1;verticalAlign=top;strokeWidth=1;shape=mxgraph.mockup.graphics.simpleIcon;strokeColor=#999999;sketch=0;fillColor=#FFFFFF;" vertex="1" parent="FgORnSjvG6CzXv4xcdTQ-2">
          <mxGeometry x="530" y="230" width="200" height="220" as="geometry" />
        </mxCell>
        <mxCell id="FgORnSjvG6CzXv4xcdTQ-20" value="My Projects" style="text;html=1;strokeColor=none;fillColor=none;align=center;verticalAlign=middle;whiteSpace=wrap;rounded=0;sketch=0;fontSize=9;" vertex="1" parent="FgORnSjvG6CzXv4xcdTQ-2">
          <mxGeometry x="270" y="180" width="220" height="20" as="geometry" />
        </mxCell>
        <mxCell id="FgORnSjvG6CzXv4xcdTQ-21" value="" style="rounded=0;whiteSpace=wrap;html=1;sketch=0;fillColor=#FFFFFF;fontSize=9;align=left;" vertex="1" parent="FgORnSjvG6CzXv4xcdTQ-2">
          <mxGeometry x="2" y="649" width="760" height="28" as="geometry" />
        </mxCell>
        <mxCell id="FgORnSjvG6CzXv4xcdTQ-22" value="" style="rounded=0;whiteSpace=wrap;html=1;sketch=0;fillColor=#FFFFFF;fontSize=9;align=left;" vertex="1" parent="FgORnSjvG6CzXv4xcdTQ-2">
          <mxGeometry y="589" width="760" height="60" as="geometry" />
        </mxCell>
        <mxCell id="FgORnSjvG6CzXv4xcdTQ-23" value="Copyright text area" style="text;html=1;strokeColor=none;fillColor=none;align=center;verticalAlign=middle;whiteSpace=wrap;rounded=0;sketch=0;fontSize=9;" vertex="1" parent="FgORnSjvG6CzXv4xcdTQ-2">
          <mxGeometry x="293" y="651" width="185" height="20" as="geometry" />
        </mxCell>
        <mxCell id="FgORnSjvG6CzXv4xcdTQ-24" value="Social Links" style="verticalLabelPosition=bottom;shadow=0;dashed=0;align=center;html=1;verticalAlign=top;strokeWidth=1;shape=mxgraph.mockup.graphics.simpleIcon;strokeColor=#999999;sketch=0;fillColor=#FFFFFF;" vertex="1" parent="FgORnSjvG6CzXv4xcdTQ-2">
          <mxGeometry x="555" y="594.5" width="150" height="35" as="geometry" />
        </mxCell>
        <mxCell id="FgORnSjvG6CzXv4xcdTQ-25" value="Download icon for CV and Text" style="verticalLabelPosition=bottom;shadow=0;dashed=0;align=center;html=1;verticalAlign=top;strokeWidth=1;shape=mxgraph.mockup.graphics.simpleIcon;strokeColor=#999999;sketch=0;fillColor=#FFFFFF;" vertex="1" parent="FgORnSjvG6CzXv4xcdTQ-2">
          <mxGeometry x="75" y="592" width="150" height="35" as="geometry" />
        </mxCell>
        <mxCell id="FgORnSjvG6CzXv4xcdTQ-26" value="Hire me button and text" style="verticalLabelPosition=bottom;shadow=0;dashed=0;align=center;html=1;verticalAlign=top;strokeWidth=1;shape=mxgraph.mockup.graphics.simpleIcon;strokeColor=#999999;sketch=0;fillColor=#FFFFFF;" vertex="1" parent="FgORnSjvG6CzXv4xcdTQ-2">
          <mxGeometry x="50" y="480" width="690" height="80" as="geometry" />
        </mxCell>
        <mxCell id="FgORnSjvG6CzXv4xcdTQ-27" value="&lt;h1 style=&quot;font-size: 11px;&quot;&gt;Got a project in mind?&lt;/h1&gt;&lt;div style=&quot;font-size: 11px;&quot;&gt;Lets Work Together!&lt;/div&gt;" style="text;html=1;strokeColor=none;fillColor=none;spacing=5;spacingTop=-20;whiteSpace=wrap;overflow=hidden;rounded=0;sketch=0;fontSize=11;align=center;" vertex="1" parent="FgORnSjvG6CzXv4xcdTQ-2">
          <mxGeometry x="280" y="487" width="240" height="50" as="geometry" />
        </mxCell>
        <mxCell id="FgORnSjvG6CzXv4xcdTQ-28" value="" style="edgeStyle=orthogonalEdgeStyle;rounded=0;orthogonalLoop=1;jettySize=auto;html=1;fontSize=12;" edge="1" parent="FgORnSjvG6CzXv4xcdTQ-2" source="FgORnSjvG6CzXv4xcdTQ-29" target="FgORnSjvG6CzXv4xcdTQ-30">
          <mxGeometry relative="1" as="geometry" />
        </mxCell>
        <mxCell id="FgORnSjvG6CzXv4xcdTQ-29" value="Hire Me!" style="strokeWidth=1;shadow=0;dashed=0;align=center;html=1;shape=mxgraph.mockup.buttons.button;strokeColor=#666666;fontColor=#ffffff;mainText=;buttonStyle=round;fontSize=12;fontStyle=1;fillColor=#008cff;whiteSpace=wrap;sketch=0;" vertex="1" parent="FgORnSjvG6CzXv4xcdTQ-2">
          <mxGeometry x="352.5" y="527" width="95" height="24" as="geometry" />
        </mxCell>
        <mxCell id="FgORnSjvG6CzXv4xcdTQ-30" value="Linked with Contact page" style="whiteSpace=wrap;html=1;shadow=0;dashed=0;fontColor=#ffffff;fontStyle=1;strokeColor=#666666;strokeWidth=1;fillColor=#008cff;sketch=0;" vertex="1" parent="FgORnSjvG6CzXv4xcdTQ-2">
          <mxGeometry x="515" y="509" width="165" height="60" as="geometry" />
        </mxCell>
        <mxCell id="FgORnSjvG6CzXv4xcdTQ-31" value="Projects Section" style="text;html=1;strokeColor=none;fillColor=none;align=center;verticalAlign=middle;whiteSpace=wrap;rounded=0;" vertex="1" parent="FgORnSjvG6CzXv4xcdTQ-1">
          <mxGeometry x="40" y="40" width="760" height="20" as="geometry" />
        </mxCell>
        <mxCell id="FgORnSjvG6CzXv4xcdTQ-32" value="Sticky Top Navbar scroll down in every section" style="text;html=1;strokeColor=none;fillColor=none;align=center;verticalAlign=middle;whiteSpace=wrap;rounded=0;sketch=0;fontSize=9;" vertex="1" parent="FgORnSjvG6CzXv4xcdTQ-1">
          <mxGeometry x="280" y="224" width="220" height="20" as="geometry" />
        </mxCell>
        <mxCell id="FgORnSjvG6CzXv4xcdTQ-33" value="" style="edgeStyle=orthogonalEdgeStyle;rounded=0;orthogonalLoop=1;jettySize=auto;html=1;fontSize=12;" edge="1" parent="FgORnSjvG6CzXv4xcdTQ-1" target="FgORnSjvG6CzXv4xcdTQ-34">
          <mxGeometry relative="1" as="geometry">
            <mxPoint x="760" y="227" as="sourcePoint" />
          </mxGeometry>
        </mxCell>
        <mxCell id="FgORnSjvG6CzXv4xcdTQ-34" value="Link of printable version CV" style="whiteSpace=wrap;html=1;shadow=0;dashed=0;strokeColor=#666666;strokeWidth=1;fillColor=#FFFFFF;sketch=0;" vertex="1" parent="FgORnSjvG6CzXv4xcdTQ-1">
          <mxGeometry x="750" y="251.5" width="60" height="51.5" as="geometry" />
        </mxCell>
        <mxCell id="FgORnSjvG6CzXv4xcdTQ-35" value="Footer area" style="ellipse;whiteSpace=wrap;html=1;rounded=0;fontSize=23;align=center;fillColor=#FFFFFF;sketch=0;" vertex="1" parent="FgORnSjvG6CzXv4xcdTQ-1">
          <mxGeometry x="270" y="814" width="310" height="36" as="geometry" />
        </mxCell>
        <mxCell id="FgORnSjvG6CzXv4xcdTQ-36" value="" style="edgeStyle=orthogonalEdgeStyle;rounded=0;orthogonalLoop=1;jettySize=auto;html=1;fontSize=12;" edge="1" parent="FgORnSjvG6CzXv4xcdTQ-1" source="FgORnSjvG6CzXv4xcdTQ-21" target="FgORnSjvG6CzXv4xcdTQ-35">
          <mxGeometry relative="1" as="geometry" />
        </mxCell>
      </root>
    </mxGraphModel>
  </diagram>
  <diagram id="rlh7T7JPTfjru8y0urWg" name="Page-5">
    <mxGraphModel dx="946" dy="517" grid="1" gridSize="10" guides="1" tooltips="1" connect="1" arrows="1" fold="1" page="1" pageScale="1" pageWidth="850" pageHeight="1100" math="0" shadow="0">
      <root>
        <mxCell id="jwBhh3Jh58FueQbD6tMu-0" />
        <mxCell id="jwBhh3Jh58FueQbD6tMu-1" parent="jwBhh3Jh58FueQbD6tMu-0" />
        <mxCell id="jwBhh3Jh58FueQbD6tMu-2" value="" style="strokeWidth=1;shadow=0;dashed=0;align=center;html=1;shape=mxgraph.mockup.containers.browserWindow;rSize=0;strokeColor=#666666;strokeColor2=#008cff;strokeColor3=#c4c4c4;mainText=,;recursiveResize=0;" vertex="1" parent="jwBhh3Jh58FueQbD6tMu-1">
          <mxGeometry x="40" y="83" width="770" height="677" as="geometry" />
        </mxCell>
        <mxCell id="jwBhh3Jh58FueQbD6tMu-3" value="&lt;span style=&quot;color: rgb(36 , 41 , 46) ; font-family: , &amp;#34;consolas&amp;#34; , &amp;#34;liberation mono&amp;#34; , &amp;#34;menlo&amp;#34; , monospace ; font-size: 12px ; background-color: rgb(255 , 255 , 255)&quot;&gt;Milestone Project 01 - Personal Portfolio&lt;/span&gt;" style="strokeWidth=1;shadow=0;dashed=0;align=center;html=1;shape=mxgraph.mockup.containers.anchor;fontSize=17;fontColor=#666666;align=left;" vertex="1" parent="jwBhh3Jh58FueQbD6tMu-2">
          <mxGeometry x="60" y="12" width="110" height="26" as="geometry" />
        </mxCell>
        <mxCell id="jwBhh3Jh58FueQbD6tMu-4" value="https://www.abr.com" style="strokeWidth=1;shadow=0;dashed=0;align=center;html=1;shape=mxgraph.mockup.containers.anchor;rSize=0;fontSize=17;fontColor=#666666;align=left;" vertex="1" parent="jwBhh3Jh58FueQbD6tMu-2">
          <mxGeometry x="130" y="60" width="250" height="26" as="geometry" />
        </mxCell>
        <mxCell id="jwBhh3Jh58FueQbD6tMu-5" value="Contact" style="strokeColor=inherit;fillColor=inherit;gradientColor=inherit;strokeWidth=1;shadow=0;dashed=0;align=center;html=1;shape=mxgraph.mockup.text.rrect;rSize=0;fontSize=17;fontColor=#0000ff;sketch=0;" vertex="1" parent="jwBhh3Jh58FueQbD6tMu-2">
          <mxGeometry x="612" y="114" width="67.5" height="25" as="geometry" />
        </mxCell>
        <mxCell id="jwBhh3Jh58FueQbD6tMu-6" value="" style="strokeWidth=1;shadow=0;dashed=0;align=center;html=1;shape=mxgraph.mockup.text.rrect;rSize=0;strokeColor=#666666;sketch=0;" vertex="1" parent="jwBhh3Jh58FueQbD6tMu-2">
          <mxGeometry x="342" y="114" width="270" height="25" as="geometry" />
        </mxCell>
        <mxCell id="jwBhh3Jh58FueQbD6tMu-7" value="About" style="strokeColor=inherit;fillColor=inherit;gradientColor=inherit;strokeWidth=1;shadow=0;dashed=0;align=center;html=1;shape=mxgraph.mockup.text.rrect;rSize=0;fontSize=17;fontColor=#0000ff;" vertex="1" parent="jwBhh3Jh58FueQbD6tMu-6">
          <mxGeometry x="67.5" width="67.5" height="25" as="geometry" />
        </mxCell>
        <mxCell id="jwBhh3Jh58FueQbD6tMu-8" value="My CV" style="strokeColor=inherit;fillColor=inherit;gradientColor=inherit;strokeWidth=1;shadow=0;dashed=0;align=center;html=1;shape=mxgraph.mockup.text.rrect;rSize=0;fontSize=17;fontColor=#0000ff;" vertex="1" parent="jwBhh3Jh58FueQbD6tMu-6">
          <mxGeometry x="135" width="67.5" height="25" as="geometry" />
        </mxCell>
        <mxCell id="jwBhh3Jh58FueQbD6tMu-9" value="Projects" style="strokeColor=inherit;fillColor=inherit;gradientColor=inherit;strokeWidth=1;shadow=0;dashed=0;align=center;html=1;shape=mxgraph.mockup.text.rrect;rSize=0;fontSize=17;fontColor=#0000ff;" vertex="1" parent="jwBhh3Jh58FueQbD6tMu-6">
          <mxGeometry x="202.5" width="67.5" height="25" as="geometry" />
        </mxCell>
        <mxCell id="jwBhh3Jh58FueQbD6tMu-10" value="Home" style="strokeWidth=1;shadow=0;dashed=0;align=center;html=1;shape=mxgraph.mockup.text.rrect;rSize=0;fontSize=17;fontColor=#ffffff;fillColor=#008cff;strokeColor=#008cff;" vertex="1" parent="jwBhh3Jh58FueQbD6tMu-6">
          <mxGeometry width="67.5" height="25" as="geometry" />
        </mxCell>
        <mxCell id="jwBhh3Jh58FueQbD6tMu-11" value="" style="edgeStyle=orthogonalEdgeStyle;rounded=0;orthogonalLoop=1;jettySize=auto;html=1;fontSize=12;" edge="1" parent="jwBhh3Jh58FueQbD6tMu-2" source="jwBhh3Jh58FueQbD6tMu-12" target="jwBhh3Jh58FueQbD6tMu-24">
          <mxGeometry relative="1" as="geometry" />
        </mxCell>
        <mxCell id="jwBhh3Jh58FueQbD6tMu-12" value="" style="strokeWidth=1;shadow=0;dashed=0;align=center;html=1;shape=mxgraph.mockup.buttons.multiButton;strokeColor=#666666;mainText=;subText=;sketch=0;fillColor=#FFFFFF;" vertex="1" parent="jwBhh3Jh58FueQbD6tMu-2">
          <mxGeometry x="680" y="114" width="80" height="30" as="geometry" />
        </mxCell>
        <mxCell id="jwBhh3Jh58FueQbD6tMu-13" value="&lt;font style=&quot;font-size: 9px&quot; color=&quot;#000000&quot;&gt;Download CV&lt;/font&gt;" style="strokeWidth=1;shadow=0;dashed=0;align=center;html=1;shape=mxgraph.mockup.anchor;fontSize=16;fontColor=#ffffff;fontStyle=1;whiteSpace=wrap;" vertex="1" parent="jwBhh3Jh58FueQbD6tMu-12">
          <mxGeometry y="4.800000000000001" width="80" height="12" as="geometry" />
        </mxCell>
        <mxCell id="jwBhh3Jh58FueQbD6tMu-14" value="" style="strokeWidth=1;shadow=0;dashed=0;align=center;html=1;shape=mxgraph.mockup.anchor;fontSize=12;fontColor=#ffffff;fontStyle=1;whiteSpace=wrap;" vertex="1" parent="jwBhh3Jh58FueQbD6tMu-12">
          <mxGeometry y="18" width="80" height="6" as="geometry" />
        </mxCell>
        <mxCell id="jwBhh3Jh58FueQbD6tMu-15" value="LOGO" style="verticalLabelPosition=bottom;shadow=0;dashed=0;align=center;html=1;verticalAlign=top;strokeWidth=1;shape=mxgraph.mockup.graphics.simpleIcon;strokeColor=#999999;sketch=0;fillColor=#FFFFFF;" vertex="1" parent="jwBhh3Jh58FueQbD6tMu-2">
          <mxGeometry y="110" width="80" height="30" as="geometry" />
        </mxCell>
        <mxCell id="jwBhh3Jh58FueQbD6tMu-16" value="Atiq Been Rahim" style="text;html=1;strokeColor=none;fillColor=none;align=center;verticalAlign=middle;whiteSpace=wrap;rounded=0;sketch=0;" vertex="1" parent="jwBhh3Jh58FueQbD6tMu-2">
          <mxGeometry x="90" y="115" width="100" height="20" as="geometry" />
        </mxCell>
        <mxCell id="jwBhh3Jh58FueQbD6tMu-17" value="Ping me Here!" style="text;html=1;strokeColor=none;fillColor=none;align=center;verticalAlign=middle;whiteSpace=wrap;rounded=0;sketch=0;fontSize=9;" vertex="1" parent="jwBhh3Jh58FueQbD6tMu-2">
          <mxGeometry x="272" y="220" width="220" height="20" as="geometry" />
        </mxCell>
        <mxCell id="jwBhh3Jh58FueQbD6tMu-18" value="" style="rounded=0;whiteSpace=wrap;html=1;sketch=0;fillColor=#FFFFFF;fontSize=9;align=left;" vertex="1" parent="jwBhh3Jh58FueQbD6tMu-2">
          <mxGeometry x="2" y="649" width="760" height="28" as="geometry" />
        </mxCell>
        <mxCell id="jwBhh3Jh58FueQbD6tMu-19" value="" style="rounded=0;whiteSpace=wrap;html=1;sketch=0;fillColor=#FFFFFF;fontSize=9;align=left;" vertex="1" parent="jwBhh3Jh58FueQbD6tMu-2">
          <mxGeometry y="589" width="760" height="60" as="geometry" />
        </mxCell>
        <mxCell id="jwBhh3Jh58FueQbD6tMu-20" value="Copyright text area" style="text;html=1;strokeColor=none;fillColor=none;align=center;verticalAlign=middle;whiteSpace=wrap;rounded=0;sketch=0;fontSize=9;" vertex="1" parent="jwBhh3Jh58FueQbD6tMu-2">
          <mxGeometry x="293" y="651" width="185" height="20" as="geometry" />
        </mxCell>
        <mxCell id="jwBhh3Jh58FueQbD6tMu-21" value="Social Links" style="verticalLabelPosition=bottom;shadow=0;dashed=0;align=center;html=1;verticalAlign=top;strokeWidth=1;shape=mxgraph.mockup.graphics.simpleIcon;strokeColor=#999999;sketch=0;fillColor=#FFFFFF;" vertex="1" parent="jwBhh3Jh58FueQbD6tMu-2">
          <mxGeometry x="555" y="594.5" width="150" height="35" as="geometry" />
        </mxCell>
        <mxCell id="jwBhh3Jh58FueQbD6tMu-22" value="Download icon for CV and Text" style="verticalLabelPosition=bottom;shadow=0;dashed=0;align=center;html=1;verticalAlign=top;strokeWidth=1;shape=mxgraph.mockup.graphics.simpleIcon;strokeColor=#999999;sketch=0;fillColor=#FFFFFF;" vertex="1" parent="jwBhh3Jh58FueQbD6tMu-2">
          <mxGeometry x="75" y="592" width="150" height="35" as="geometry" />
        </mxCell>
        <mxCell id="jwBhh3Jh58FueQbD6tMu-23" value="Send Project Request" style="strokeWidth=1;shadow=0;dashed=0;align=center;html=1;shape=mxgraph.mockup.buttons.button;strokeColor=#666666;fontColor=#ffffff;mainText=;buttonStyle=round;fontSize=12;fontStyle=1;fillColor=#008cff;whiteSpace=wrap;sketch=0;" vertex="1" parent="jwBhh3Jh58FueQbD6tMu-2">
          <mxGeometry x="340" y="487" width="160" height="33" as="geometry" />
        </mxCell>
        <mxCell id="jwBhh3Jh58FueQbD6tMu-24" value="Link of printable version CV" style="whiteSpace=wrap;html=1;shadow=0;dashed=0;strokeColor=#666666;strokeWidth=1;fillColor=#FFFFFF;sketch=0;" vertex="1" parent="jwBhh3Jh58FueQbD6tMu-2">
          <mxGeometry x="710" y="168.5" width="60" height="51.5" as="geometry" />
        </mxCell>
        <mxCell id="jwBhh3Jh58FueQbD6tMu-25" value="Lorem ipsum dolor sit amet, consectetur adipisicing elit, sed do eiusmod tempor incididunt ut labore et dolore magna aliqua. Ut enim ad minim veniam, quis nostrud exercitation ullamco laboris nisi ut aliquip ex ea commodo consequat. Duis aute irure dolor in reprehenderit in voluptate velit esse cillum dolore eu fugiat nulla pariatur. Excepteur sint occaecat cupidatat non proident, sunt in culpa qui officia deserunt mollit anim id est laborum." style="strokeWidth=1;shadow=0;dashed=0;align=center;html=1;shape=mxgraph.mockup.forms.rrect;fillColor=#ffffff;rSize=0;fontColor=#666666;align=left;spacingLeft=3;strokeColor=#999999;verticalAlign=top;whiteSpace=wrap;sketch=0;" vertex="1" parent="jwBhh3Jh58FueQbD6tMu-2">
          <mxGeometry x="150" y="287" width="510" height="183" as="geometry" />
        </mxCell>
        <mxCell id="jwBhh3Jh58FueQbD6tMu-26" value="Greeting" style="strokeWidth=1;shadow=0;dashed=0;align=center;html=1;shape=mxgraph.mockup.forms.rrect;fillColor=#ffffff;rSize=0;fontColor=#666666;align=left;spacingLeft=3;strokeColor=#999999;sketch=0;" vertex="1" parent="jwBhh3Jh58FueQbD6tMu-2">
          <mxGeometry x="190" y="267" width="470" height="18" as="geometry" />
        </mxCell>
        <mxCell id="jwBhh3Jh58FueQbD6tMu-27" value="Subject" style="strokeWidth=1;shadow=0;dashed=0;align=center;html=1;shape=mxgraph.mockup.forms.anchor;align=right;spacingRight=2;fontColor=#666666;sketch=0;fillColor=#FFFFFF;" vertex="1" parent="jwBhh3Jh58FueQbD6tMu-2">
          <mxGeometry x="140" y="267" width="50" height="18" as="geometry" />
        </mxCell>
        <mxCell id="jwBhh3Jh58FueQbD6tMu-28" value="john@jgraph.com" style="strokeWidth=1;shadow=0;dashed=0;align=center;html=1;shape=mxgraph.mockup.forms.rrect;fillColor=#ffffff;rSize=0;fontColor=#666666;align=left;spacingLeft=3;strokeColor=#999999;sketch=0;" vertex="1" parent="jwBhh3Jh58FueQbD6tMu-2">
          <mxGeometry x="190" y="249" width="470" height="18" as="geometry" />
        </mxCell>
        <mxCell id="jwBhh3Jh58FueQbD6tMu-29" value="From" style="strokeWidth=1;shadow=0;dashed=0;align=center;html=1;shape=mxgraph.mockup.forms.anchor;align=right;spacingRight=2;fontColor=#666666;sketch=0;fillColor=#FFFFFF;" vertex="1" parent="jwBhh3Jh58FueQbD6tMu-2">
          <mxGeometry x="140" y="249" width="50" height="18" as="geometry" />
        </mxCell>
        <mxCell id="jwBhh3Jh58FueQbD6tMu-30" value="Contact Section" style="text;html=1;strokeColor=none;fillColor=none;align=center;verticalAlign=middle;whiteSpace=wrap;rounded=0;" vertex="1" parent="jwBhh3Jh58FueQbD6tMu-1">
          <mxGeometry x="40" y="40" width="760" height="20" as="geometry" />
        </mxCell>
        <mxCell id="jwBhh3Jh58FueQbD6tMu-31" value="Sticky Top Navbar scroll down in every section" style="text;html=1;strokeColor=none;fillColor=none;align=center;verticalAlign=middle;whiteSpace=wrap;rounded=0;sketch=0;fontSize=9;" vertex="1" parent="jwBhh3Jh58FueQbD6tMu-1">
          <mxGeometry x="280" y="224" width="220" height="20" as="geometry" />
        </mxCell>
        <mxCell id="jwBhh3Jh58FueQbD6tMu-32" value="Footer area" style="ellipse;whiteSpace=wrap;html=1;rounded=0;fontSize=23;align=center;fillColor=#FFFFFF;sketch=0;" vertex="1" parent="jwBhh3Jh58FueQbD6tMu-1">
          <mxGeometry x="270" y="814" width="310" height="36" as="geometry" />
        </mxCell>
        <mxCell id="jwBhh3Jh58FueQbD6tMu-33" value="" style="edgeStyle=orthogonalEdgeStyle;rounded=0;orthogonalLoop=1;jettySize=auto;html=1;fontSize=12;" edge="1" parent="jwBhh3Jh58FueQbD6tMu-1" target="jwBhh3Jh58FueQbD6tMu-32">
          <mxGeometry relative="1" as="geometry">
            <mxPoint x="422" y="760" as="sourcePoint" />
          </mxGeometry>
        </mxCell>
      </root>
    </mxGraphModel>
  </diagram>
</mxfile>
